<?xml version="1.0" encoding="UTF-8" standalone="no"?>
<!-- Generator: Adobe Illustrator 22.0.1, SVG Export Plug-In . SVG Version: 6.00 Build 0)  -->

<svg
   xmlns:dc="http://purl.org/dc/elements/1.1/"
   xmlns:cc="http://creativecommons.org/ns#"
   xmlns:rdf="http://www.w3.org/1999/02/22-rdf-syntax-ns#"
   xmlns:svg="http://www.w3.org/2000/svg"
   xmlns="http://www.w3.org/2000/svg"
   xmlns:sodipodi="http://sodipodi.sourceforge.net/DTD/sodipodi-0.dtd"
   xmlns:inkscape="http://www.inkscape.org/namespaces/inkscape"
   version="1.1"
   id="Layer_1"
   x="0px"
   y="0px"
   viewBox="0 0 16 16"
   xml:space="preserve"
   sodipodi:docname="network-wired-symbolic.svg"
   width="16"
   height="16"
   inkscape:version="0.92.3 (2405546, 2018-03-11)"><metadata
   id="metadata23"><rdf:RDF><cc:Work
       rdf:about=""><dc:format>image/svg+xml</dc:format><dc:type
         rdf:resource="http://purl.org/dc/dcmitype/StillImage" /><dc:title /></cc:Work></rdf:RDF></metadata><defs
   id="defs21" /><sodipodi:namedview
   pagecolor="#ffffff"
   bordercolor="#666666"
   borderopacity="1"
   objecttolerance="10"
   gridtolerance="10"
   guidetolerance="10"
   inkscape:pageopacity="0"
   inkscape:pageshadow="2"
   inkscape:window-width="1920"
   inkscape:window-height="1151"
   id="namedview19"
   showgrid="false"
   inkscape:zoom="9.8333333"
   inkscape:cx="22.66649"
   inkscape:cy="0.38734046"
   inkscape:window-x="0"
   inkscape:window-y="23"
   inkscape:window-maximized="1"
   inkscape:current-layer="Layer_1" />
<style
   type="text/css"
   id="style2">
	.st0{fill-rule:evenodd;clip-rule:evenodd;fill:#F2F2F2;}
	.st1{opacity:0.65;}
</style>


<g
   id="g816"
   transform="matrix(0.9604,0,0,0.98,0.31910122,0.36576273)"><path
     style="clip-rule:evenodd;fill:#f2f2f2;fill-rule:evenodd;stroke-width:0.87651336"
     inkscape:connector-curvature="0"
     id="path4"
     d="m 3.6755448,1.9830507 c -1.6653753,0 -3.06779663,1.4024214 -3.06779663,3.0677967 v 6.1355946 c 0,1.665375 1.40242133,3.067796 3.06779663,3.067796 h 8.7651332 c 1.665376,0 3.067797,-1.402421 3.067797,-3.067796 V 5.0508474 c 0,-1.6653753 -1.402421,-3.0677967 -3.067797,-3.0677967 z M 13.22954,3.7360774 c 0.175302,0 0.525908,0.262954 0.525908,0.4382566 v 5.5220339 c -0.08765,0.087652 -0.262954,0.5259091 -0.438257,0.5259091 h -1.665375 v 0.876513 c 0,0.175303 -0.350605,0.438257 -0.438257,0.438257 h -0.788862 c 0,0 0.08765,1.051816 -0.5259077,1.051816 H 6.2174334 C 5.5162228,12.413561 5.6038741,12.150606 5.6038741,11.800001 V 11.624698 H 4.7273607 C 4.552058,11.537047 4.2891041,11.274093 4.2891041,11.09879 V 10.309928 H 2.7113802 C 2.6237288,10.134625 2.3607748,9.9593216 2.3607748,9.7840195 V 4.0866827 c 0,-0.087652 0.262954,-0.3506053 0.4382566,-0.3506053 z"
     class="st0" /><rect
     style="fill:#f2f2f2;fill-opacity:0.49019608;stroke-width:0.85009533"
     y="5.454505"
     x="3.7724226"
     height="1.6469225"
     width="8.6221237"
     id="rect3728" /></g></svg>