<?xml version="1.0" encoding="UTF-8" standalone="no"?>
<!-- Generator: Adobe Illustrator 22.0.1, SVG Export Plug-In . SVG Version: 6.00 Build 0)  -->

<svg
   xmlns:dc="http://purl.org/dc/elements/1.1/"
   xmlns:cc="http://creativecommons.org/ns#"
   xmlns:rdf="http://www.w3.org/1999/02/22-rdf-syntax-ns#"
   xmlns:svg="http://www.w3.org/2000/svg"
   xmlns="http://www.w3.org/2000/svg"
   xmlns:sodipodi="http://sodipodi.sourceforge.net/DTD/sodipodi-0.dtd"
   xmlns:inkscape="http://www.inkscape.org/namespaces/inkscape"
   version="1.1"
   id="Layer_1"
   x="0px"
   y="0px"
   viewBox="0 0 16 16"
   xml:space="preserve"
   sodipodi:docname="network-wired-symbolic.svg"
   width="16"
   height="16"
   inkscape:version="0.92.3 (2405546, 2018-03-11)"><metadata
   id="metadata23"><rdf:RDF><cc:Work
       rdf:about=""><dc:format>image/svg+xml</dc:format><dc:type
         rdf:resource="http://purl.org/dc/dcmitype/StillImage" /><dc:title /></cc:Work></rdf:RDF></metadata><defs
   id="defs21" /><sodipodi:namedview
   pagecolor="#ffffff"
   bordercolor="#666666"
   borderopacity="1"
   objecttolerance="10"
   gridtolerance="10"
   guidetolerance="10"
   inkscape:pageopacity="0"
   inkscape:pageshadow="2"
   inkscape:window-width="1920"
   inkscape:window-height="1151"
   id="namedview19"
   showgrid="false"
   inkscape:zoom="27.812867"
   inkscape:cx="6.9414054"
   inkscape:cy="5.8550237"
   inkscape:window-x="0"
   inkscape:window-y="23"
   inkscape:window-maximized="1"
   inkscape:current-layer="Layer_1" />
<style
   type="text/css"
   id="style2">
	.st0{fill-rule:evenodd;clip-rule:evenodd;fill:#F2F2F2;}
	.st1{opacity:0.65;}
</style>


<path
   style="fill:#f2f2f2;fill-opacity:1;stroke-width:1.16039336"
   d="m 2.140918,3.2889234 c -0.1953649,0 -0.4901368,0.3002258 -0.4901368,0.3999024 v 6.4763682 c 0,0.199354 0.2940174,0.399477 0.3916993,0.598831 h 1.7595703 v 0.898242 c 0,0.199352 0.2906704,0.49915 0.4860352,0.598828 h 0.9782226 v 0.198926 c 0,0.398702 -0.098548,0.698892 0.6829101,0.898242 h 4.1036133 c 0.683777,0 0.586524,-1.197656 0.586524,-1.197656 h 0.877733 c 0.09768,0 0.488087,-0.298988 0.488087,-0.49834 v -0.99668 h 1.855957 c 0.195365,0 0.390404,-0.499152 0.488086,-0.598831 V 3.789314 c 0,-0.1993515 -0.389109,-0.5003906 -0.584473,-0.5003906 z m 1.518506,1.9200585 h 8.681152 V 6.4897607 H 3.659424 Z"
   id="rect886"
   inkscape:connector-curvature="0"
   sodipodi:nodetypes="sssccsccscscsscscsssccccc" /></svg>